<?xml version="1.0" encoding="UTF-8"?>
<!DOCTYPE svg PUBLIC "-//W3C//DTD SVG 1.1//EN" "http://www.w3.org/Graphics/SVG/1.1/DTD/svg11.dtd">
<svg version="1.1" xmlns="http://www.w3.org/2000/svg" xmlns:xlink="http://www.w3.org/1999/xlink" x="0" y="0" width="792" height="174" viewBox="0, 0, 792, 174">
  <g id="Background">
    <rect x="0" y="0" width="792" height="174" fill="#000000" fill-opacity="0"/>
  </g>
  <g id="Layer_1">
    <path d="M113.081,149.906 L70.648,149.906 L70.648,107.472 L28.214,107.472 L28.214,65.039 L70.648,65.039 L70.648,107.472 L113.081,107.472 L113.081,149.906" fill="#575D65"/>
    <path d="M282.017,104.709 C285.069,97.879 291.463,93.228 299.892,93.228 C308.321,93.228 314.57,97.152 317.186,104.709 L282.017,104.709 z M337.241,113.428 C337.241,92.501 321.982,75.789 299.747,75.789 C278.82,75.789 261.962,92.646 261.962,113.574 C261.962,134.501 277.657,151.36 300.328,151.36 C316.03,151.36 327.323,143.786 333.677,132.929 L317.884,123.511 C314.534,129.94 308.104,133.92 300.473,133.92 C290.01,133.92 283.47,128.688 281.145,120.695 L337.241,120.695 L337.241,113.428 z M742.58,113.428 C742.58,102.674 734.733,93.955 723.978,93.955 C712.933,93.955 704.504,102.239 704.504,113.428 C704.504,124.619 712.933,133.048 723.978,133.048 C734.733,133.048 742.58,124.183 742.58,113.428 z M685.03,113.574 C685.03,87.851 703.923,75.789 720.345,75.789 C729.791,75.789 737.203,79.276 741.999,84.363 L741.999,43.817 L761.909,43.817 L761.909,149.906 L741.999,149.906 L741.999,141.767 C737.203,147.435 729.501,151.36 720.054,151.36 C704.65,151.36 685.03,139.152 685.03,113.574 z M670.405,66.182 C676.982,66.182 682.314,60.85 682.314,54.272 C682.314,47.695 676.982,42.363 670.405,42.363 C663.827,42.363 658.495,47.695 658.495,54.272 C658.495,60.85 663.827,66.182 670.405,66.182 z M660.45,77.242 L680.359,77.242 L680.359,149.906 L660.45,149.906 L660.45,96.572 L653.224,96.571 L660.45,77.242 z M607.412,77.242 L627.176,77.242 L627.176,89.159 C630.809,81.602 637.349,77.242 647.231,77.242 L655.224,77.242 L648.006,96.571 L642.581,96.571 C631.972,96.571 627.321,102.093 627.321,115.609 L627.321,149.906 L607.412,149.906 L607.412,77.242 z M495.404,96.861 C495.404,66.633 518.221,42.363 549.611,42.363 C565.312,42.363 578.517,48.016 588.077,57.026 C591.967,60.693 595.254,64.916 597.861,69.539 L580.13,80.293 C573.591,68.231 563.563,61.982 549.757,61.982 C530.428,61.982 515.459,77.823 515.459,96.861 C515.459,116.335 530.138,131.74 550.484,131.74 C565.889,131.74 576.788,123.02 580.566,109.505 L547.287,109.505 L547.287,90.176 L602.365,90.176 L602.365,98.314 C602.365,126.799 582.02,151.36 550.484,151.36 C517.349,151.36 495.404,126.218 495.404,96.861 z M471.405,113.428 C471.405,102.674 463.557,93.955 452.803,93.955 C441.758,93.955 433.328,102.239 433.328,113.428 C433.328,124.619 441.758,133.048 452.803,133.048 C463.557,133.048 471.405,124.183 471.405,113.428 z M413.855,113.574 C413.855,87.851 432.747,75.789 449.169,75.789 C458.615,75.789 466.027,79.276 470.823,84.363 L470.823,43.817 L490.733,43.817 L490.733,149.906 L470.823,149.906 L470.823,141.767 C466.027,147.435 458.325,151.36 448.878,151.36 C433.474,151.36 413.855,139.152 413.855,113.574 z M341.897,77.242 L361.661,77.242 L361.661,85.38 C366.312,79.422 373.433,75.789 381.716,75.789 C398.865,75.789 409.183,86.833 409.183,105.581 L409.183,149.906 L388.983,149.906 L388.983,108.197 C388.983,98.46 384.478,92.792 375.613,92.792 C368.056,92.792 361.807,98.024 361.807,110.231 L361.807,149.906 L341.897,149.906 L341.897,77.242 z M179.334,132.322 L197.791,117.788 C203.023,126.799 211.306,132.03 220.752,132.03 C231.071,132.03 236.593,125.345 236.593,118.079 C236.593,109.359 225.984,106.598 214.648,103.11 C200.407,98.75 184.566,93.228 184.566,72.882 C184.566,55.878 199.389,42.363 219.88,42.363 C237.175,42.363 247.057,48.903 255.631,57.768 L238.918,70.412 C234.559,63.872 228.31,60.384 220.026,60.384 C210.579,60.384 205.493,65.47 205.493,72.156 C205.493,80.293 215.666,83.055 227.001,86.833 C241.389,91.484 257.666,97.878 257.666,118.225 C257.666,135.082 244.296,151.36 220.898,151.36 C201.714,151.36 188.925,143.221 179.334,132.322" fill="#FFFFFE"/>
    <path d="M28.214,107.472 L70.648,107.472 L70.648,149.906 L28.214,149.906 z" fill="#FFFFFE"/>
    <path d="M155.515,107.472 L113.081,107.472 L113.081,65.039 L70.648,65.039 L70.648,22.605 L113.081,22.605 L113.081,65.039 L155.515,65.039 L155.515,107.472" fill="#ADACAE"/>
    <path d="M70.648,65.039 L113.081,65.039 L113.081,107.472 L70.648,107.472 z" fill="#C5C4C5"/>
    <path d="M113.081,22.605 L155.515,22.605 L155.515,65.039 L113.081,65.039 z" fill="#FFFFFE"/>
  </g>
</svg>
