<?xml version="1.0" encoding="UTF-8"?>
<!DOCTYPE svg PUBLIC "-//W3C//DTD SVG 1.1//EN" "http://www.w3.org/Graphics/SVG/1.1/DTD/svg11.dtd">
<svg version="1.1" xmlns="http://www.w3.org/2000/svg" xmlns:xlink="http://www.w3.org/1999/xlink" x="0px" y="0px" width="290.238" height="73.646" viewBox="0, 0, 290.238, 73.646">
  <g id="Background">
    <rect x="0" y="0" width="290.238" height="73.646" fill="#000000" fill-opacity="0"/>
  </g>
  <g id="Layer 1">
    <g>
      <path d="M115.719,24.915 C115.381,25.915 114.919,26.902 114.317,27.865 C113.35,27.404 112.361,27.02 111.345,26.72 C110.326,26.417 109.001,26.267 107.37,26.267 C106.766,26.267 106.122,26.318 105.443,26.417 C104.766,26.52 104.142,26.711 103.593,26.992 C103.047,27.279 102.59,27.665 102.222,28.169 C101.848,28.668 101.663,29.314 101.663,30.119 C101.663,31.249 102.077,32.185 102.898,32.92 C103.707,33.646 104.752,34.38 106.022,35.117 C107.152,35.748 108.201,36.383 109.169,37.013 C110.134,37.652 110.981,38.332 111.716,39.065 C112.453,39.802 113.024,40.625 113.443,41.54 C113.86,42.46 114.067,43.517 114.067,44.718 C114.067,46.418 113.757,48.049 113.144,49.614 C112.527,51.185 111.579,52.551 110.292,53.71 C109.011,54.88 107.386,55.813 105.417,56.509 C103.454,57.216 101.117,57.565 98.418,57.565 C95.285,57.565 92.205,56.984 89.17,55.813 C89.301,54.812 89.549,53.808 89.894,52.789 C90.248,51.775 90.672,50.715 91.171,49.614 C92.434,50.082 93.727,50.483 95.042,50.815 C96.361,51.145 97.64,51.314 98.868,51.314 C99.9,51.314 100.862,51.198 101.747,50.964 C102.627,50.728 103.396,50.382 104.045,49.919 C104.689,49.447 105.2,48.883 105.571,48.219 C105.936,47.551 106.121,46.764 106.121,45.868 C106.121,45.201 105.967,44.613 105.666,44.116 C105.369,43.619 104.984,43.165 104.521,42.766 C104.049,42.36 103.502,41.989 102.867,41.638 C102.232,41.29 101.599,40.914 100.968,40.517 C98.837,39.245 97.146,37.941 95.896,36.587 C94.65,35.245 94.02,33.646 94.02,31.819 C94.02,30.021 94.339,28.409 94.972,26.992 C95.602,25.579 96.501,24.387 97.668,23.416 C98.836,22.454 100.244,21.703 101.898,21.19 C103.545,20.677 105.401,20.421 107.467,20.421 C109.303,20.421 110.887,20.559 112.214,20.809 C113.551,21.085 114.952,21.504 116.417,22.066 C116.283,22.972 116.051,23.917 115.719,24.915 L115.719,24.915 z M138.617,40.867 C137.919,41.965 136.984,42.904 135.818,43.668 C134.65,44.43 133.324,45.059 131.84,45.538 C130.358,46.022 128.814,46.387 127.218,46.619 L123.867,47.165 C124.07,48.763 124.602,49.961 125.465,50.741 C126.334,51.521 127.606,51.917 129.262,51.917 C130.597,51.917 131.776,51.775 132.792,51.489 C133.806,51.21 134.886,50.834 136.014,50.364 C136.547,51.033 136.907,51.841 137.093,52.789 C137.273,53.738 137.363,54.75 137.363,55.813 C136.797,56.081 136.144,56.326 135.388,56.539 C134.646,56.76 133.866,56.94 133.066,57.091 C132.264,57.241 131.466,57.356 130.666,57.439 C129.864,57.519 129.153,57.566 128.518,57.566 C126.483,57.566 124.745,57.314 123.29,56.817 C121.842,56.318 120.641,55.611 119.689,54.689 C118.746,53.775 118.044,52.655 117.59,51.34 C117.142,50.023 116.921,48.561 116.921,46.964 C116.921,44.93 117.271,42.935 117.968,40.97 C118.67,39 119.662,37.244 120.945,35.695 C122.226,34.138 123.789,32.894 125.644,31.938 C127.493,30.989 129.57,30.514 131.866,30.514 C132.967,30.514 133.99,30.657 134.939,30.92 C135.897,31.187 136.717,31.595 137.415,32.143 C138.113,32.693 138.663,33.369 139.069,34.166 C139.463,34.966 139.666,35.9 139.666,36.969 C139.665,38.463 139.315,39.766 138.617,40.867 L138.617,40.867 z M132.293,36.323 C131.872,35.917 131.319,35.717 130.617,35.717 C129.754,35.717 128.957,35.911 128.242,36.294 C127.525,36.673 126.899,37.19 126.366,37.814 C125.831,38.449 125.372,39.175 124.989,39.989 C124.608,40.813 124.318,41.634 124.116,42.465 L126.716,42.066 C127.979,41.87 129.016,41.611 129.816,41.289 C130.616,40.975 131.246,40.625 131.712,40.24 C132.182,39.859 132.499,39.465 132.668,39.064 C132.833,38.668 132.917,38.266 132.917,37.867 C132.917,37.231 132.708,36.72 132.293,36.323 L132.293,36.323 z M165.91,38.768 C165.847,39.336 165.76,39.931 165.665,40.568 L162.761,56.964 C161.497,57.167 160.281,57.265 159.111,57.265 C157.944,57.265 156.796,57.167 155.666,56.964 L158.463,41.116 C158.59,40.45 158.659,39.817 158.659,39.219 C158.659,38.227 158.443,37.517 158.01,37.114 C157.58,36.72 156.965,36.515 156.161,36.515 C155.695,36.515 155.17,36.638 154.588,36.86 C154.002,37.099 153.414,37.591 152.814,38.342 C152.215,39.093 151.628,40.151 151.063,41.52 C150.495,42.881 150.011,44.68 149.608,46.915 L147.761,56.963 C146.464,57.166 145.249,57.264 144.118,57.264 C142.944,57.264 141.798,57.166 140.658,56.963 L143.366,42.218 C143.731,40.114 144.006,38.258 144.186,36.641 C144.371,35.019 144.46,33.768 144.46,32.871 C144.46,32.501 144.46,32.193 144.46,31.937 C144.46,31.687 144.446,31.418 144.413,31.119 C145.509,30.919 146.612,30.818 147.711,30.818 C148.212,30.818 148.707,30.84 149.211,30.892 C149.715,30.948 150.241,31.015 150.811,31.119 C150.88,31.387 150.945,31.698 151.014,32.068 C151.077,32.44 151.112,32.982 151.112,33.724 C151.112,34.016 151.101,34.317 151.088,34.618 C151.068,34.915 151.028,35.278 150.967,35.716 C151.362,35.016 151.863,34.348 152.462,33.724 C153.066,33.087 153.743,32.532 154.51,32.068 C155.279,31.598 156.101,31.237 156.986,30.967 C157.866,30.698 158.758,30.561 159.662,30.561 C161.656,30.561 163.22,31.073 164.337,32.094 C165.453,33.108 166.008,34.799 166.008,37.166 C166.01,37.669 165.975,38.202 165.91,38.768 L165.91,38.768 z M194.158,27.665 L190.905,45.766 C190.542,47.86 190.275,49.725 190.107,51.339 C189.938,52.956 189.86,54.213 189.86,55.109 C189.86,55.483 189.86,55.788 189.86,56.038 C189.86,56.288 189.871,56.562 189.911,56.867 C188.81,57.061 187.727,57.166 186.656,57.166 C185.727,57.166 184.695,57.061 183.561,56.867 C183.494,56.602 183.425,56.279 183.358,55.916 C183.291,55.551 183.26,54.996 183.26,54.267 C183.26,53.966 183.267,53.614 183.284,53.217 C183.297,52.816 183.344,52.399 183.407,51.963 C182.941,52.736 182.386,53.454 181.734,54.144 C181.085,54.822 180.364,55.416 179.581,55.916 C178.799,56.415 177.959,56.816 177.061,57.108 C176.156,57.413 175.209,57.565 174.209,57.565 C172.01,57.565 170.359,56.867 169.26,55.462 C168.159,54.063 167.606,52.213 167.606,49.918 C167.606,47.411 167.985,44.998 168.742,42.667 C169.486,40.327 170.602,38.266 172.087,36.464 C173.567,34.666 175.416,33.218 177.611,32.141 C179.808,31.056 182.378,30.512 185.306,30.512 C185.538,30.512 185.767,30.526 185.981,30.539 C186.199,30.559 186.393,30.559 186.558,30.559 C186.923,28.6 187.182,26.934 187.333,25.572 C187.483,24.201 187.558,23.063 187.558,22.167 C187.558,21.801 187.549,21.496 187.533,21.244 C187.52,20.994 187.489,20.723 187.459,20.42 C188.025,20.317 188.674,20.244 189.415,20.191 C190.141,20.144 190.772,20.12 191.307,20.12 C192.278,20.12 193.341,20.213 194.509,20.419 C194.678,20.918 194.759,21.549 194.759,22.317 C194.758,23.783 194.561,25.574 194.158,27.665 L194.158,27.665 z M184.685,36.341 C184.4,36.327 184.128,36.323 183.867,36.323 C182.254,36.323 180.905,36.72 179.785,37.517 C178.664,38.315 177.742,39.32 177.009,40.518 C176.276,41.719 175.745,43.011 175.416,44.391 C175.079,45.775 174.912,47.038 174.912,48.164 C174.912,50.629 175.73,51.859 177.363,51.859 C178.959,51.859 180.445,50.892 181.806,48.946 C183.179,46.99 184.172,44.255 184.81,40.713 L185.557,36.466 C185.252,36.401 184.964,36.357 184.685,36.341 L184.685,36.341 z M222.779,24.77 C222.462,25.668 222.023,26.653 221.455,27.716 C220.423,27.282 219.47,27.001 218.603,26.871 C217.738,26.735 216.889,26.673 216.052,26.673 C213.819,26.673 211.909,27.159 210.329,28.115 C208.745,29.082 207.446,30.339 206.43,31.892 C205.412,33.441 204.659,35.205 204.182,37.166 C203.698,39.134 203.456,41.115 203.456,43.114 C203.456,46.015 204.162,48.078 205.579,49.317 C206.996,50.545 208.87,51.156 211.205,51.156 C211.671,51.156 212.187,51.138 212.758,51.087 C213.324,51.042 213.756,50.98 214.053,50.915 L216.252,38.37 C216.92,38.23 217.551,38.138 218.155,38.094 C218.759,38.043 219.34,38.016 219.905,38.016 C220.473,38.016 221.061,38.043 221.677,38.094 C222.294,38.137 222.905,38.23 223.502,38.37 L220.356,56.167 C218.887,56.662 217.238,57.021 215.407,57.241 C213.573,57.455 211.855,57.566 210.253,57.566 C207.826,57.566 205.689,57.218 203.857,56.51 C202.023,55.813 200.49,54.846 199.254,53.615 C198.021,52.389 197.099,50.919 196.484,49.243 C195.865,47.556 195.557,45.735 195.557,43.772 C195.557,40.532 196.036,37.502 197.005,34.669 C197.967,31.839 199.332,29.365 201.08,27.24 C202.827,25.128 204.939,23.465 207.409,22.248 C209.872,21.029 212.608,20.423 215.6,20.423 C217.165,20.423 218.568,20.523 219.807,20.726 C221.037,20.922 222.289,21.305 223.553,21.873 C223.351,22.902 223.097,23.872 222.779,24.77 L222.779,24.77 z M243.252,34.813 C243.018,35.813 242.7,36.649 242.305,37.316 C242.102,37.283 241.888,37.245 241.648,37.218 C241.414,37.189 241.115,37.165 240.752,37.165 C239.39,37.165 238.256,37.401 237.38,37.867 C236.493,38.331 235.765,38.988 235.201,39.843 C234.635,40.694 234.183,41.717 233.857,42.918 C233.521,44.115 233.222,45.443 232.954,46.915 L231.107,56.963 C229.801,57.166 228.587,57.264 227.457,57.264 C226.287,57.264 225.135,57.166 224.005,56.963 L226.71,42.218 C227.067,40.114 227.343,38.258 227.526,36.641 C227.715,35.019 227.807,33.768 227.807,32.871 C227.807,32.501 227.807,32.193 227.807,31.937 C227.807,31.687 227.785,31.418 227.751,31.119 C228.854,30.919 229.952,30.818 231.056,30.818 C231.555,30.818 232.052,30.84 232.554,30.892 C233.051,30.948 233.584,31.015 234.149,31.119 C234.225,31.387 234.285,31.698 234.354,32.068 C234.416,32.44 234.45,32.982 234.45,33.724 C234.45,34.016 234.445,34.317 234.43,34.618 C234.41,34.915 234.37,35.278 234.305,35.716 C234.635,35.117 235.056,34.526 235.553,33.938 C236.052,33.356 236.609,32.833 237.226,32.367 C237.843,31.903 238.525,31.527 239.278,31.242 C240.027,30.959 240.849,30.818 241.752,30.818 C242.452,30.818 243.055,30.905 243.548,31.067 C243.584,31.199 243.602,31.337 243.602,31.468 C243.602,31.599 243.602,31.755 243.602,31.921 C243.602,32.85 243.484,33.815 243.252,34.813 L243.252,34.813 z M251.849,56.964 C250.579,57.167 249.382,57.265 248.25,57.265 C247.216,57.265 246.102,57.167 244.901,56.964 L248.504,36.515 L245.353,36.515 C245.353,36.422 245.34,36.323 245.328,36.217 C245.312,36.123 245.299,35.999 245.299,35.867 C245.299,35.004 245.386,34.193 245.549,33.442 C245.716,32.693 245.966,31.922 246.3,31.12 L256.403,31.12 L251.849,56.964 L251.849,56.964 z M283.293,27.665 L280.047,45.766 C279.677,47.86 279.414,49.725 279.247,51.339 C279.078,52.956 278.995,54.213 278.995,55.109 C278.995,55.483 278.995,55.788 278.995,56.038 C278.995,56.288 279.013,56.562 279.048,56.867 C277.945,57.061 276.86,57.166 275.799,57.166 C274.863,57.166 273.829,57.061 272.695,56.867 C272.628,56.602 272.564,56.279 272.501,55.916 C272.429,55.551 272.4,54.996 272.4,54.267 C272.4,53.966 272.409,53.614 272.42,53.217 C272.438,52.816 272.482,52.399 272.545,51.963 C272.084,52.736 271.524,53.454 270.874,54.144 C270.223,54.822 269.506,55.416 268.721,55.916 C267.941,56.415 267.096,56.816 266.199,57.108 C265.294,57.413 264.352,57.565 263.351,57.565 C261.149,57.565 259.498,56.867 258.4,55.462 C257.299,54.063 256.753,52.213 256.753,49.918 C256.753,47.411 257.128,44.998 257.874,42.667 C258.627,40.327 259.739,38.266 261.228,36.464 C262.705,34.666 264.548,33.218 266.748,32.141 C268.945,31.056 271.512,30.512 274.451,30.512 C274.685,30.512 274.907,30.526 275.122,30.539 C275.34,30.559 275.53,30.559 275.695,30.559 C276.058,28.6 276.326,26.934 276.468,25.572 C276.622,24.201 276.695,23.063 276.695,22.167 C276.695,21.801 276.688,21.496 276.668,21.244 C276.652,20.994 276.628,20.723 276.599,20.42 C277.165,20.317 277.818,20.244 278.549,20.191 C279.276,20.144 279.911,20.12 280.45,20.12 C281.415,20.12 282.48,20.213 283.645,20.419 C283.814,20.918 283.894,21.549 283.894,22.317 C283.894,23.783 283.698,25.574 283.293,27.665 L283.293,27.665 z M273.822,36.341 C273.539,36.327 273.263,36.323 272.998,36.323 C271.398,36.323 270.045,36.72 268.92,37.517 C267.804,38.315 266.883,39.32 266.152,40.518 C265.417,41.719 264.882,43.011 264.548,44.391 C264.221,45.775 264.051,47.038 264.051,48.164 C264.051,50.629 264.866,51.859 266.493,51.859 C268.098,51.859 269.586,50.892 270.952,48.946 C272.314,46.99 273.314,44.255 273.947,40.713 L274.7,36.466 C274.395,36.401 274.105,36.357 273.822,36.341 L273.822,36.341 z" fill="#E6E7E8"/>
      <g>
        <path d="M81.481,33.002 C81.468,32.967 81.456,32.933 81.448,32.903 C81.261,32.441 81.069,31.976 80.866,31.505 C80.474,31.014 80.03,30.629 79.554,30.335 C79.345,30.201 79.126,30.081 78.906,29.99 C78.763,29.92 78.625,29.862 78.485,29.813 C77.589,29.486 76.66,29.382 75.845,29.382 C73.728,29.382 71.315,30.101 69.216,31.337 C62.326,35.441 55.686,45.024 52.588,49.936 L52.784,49.784 L51.46,51.875 C56.89,51.707 69.197,51.285 75.822,46.772 C83.503,40.975 82.155,34.892 81.481,33.002 z" fill="#0071CE"/>
        <path d="M12.789,42.204 C20.314,37.73 28.048,26.107 30.656,21.692 C23.703,21.852 12.457,22.782 6.212,26.877 C1.983,29.56 -1.307,35.683 0.512,40.507 C0.537,40.558 0.555,40.589 0.572,40.63 C0.761,41.105 0.96,41.592 1.171,42.089 C2.528,43.772 4.536,44.168 6.131,44.168 C8.253,44.167 10.681,43.452 12.789,42.204 z" fill="#0071CE"/>
        <path d="M57.589,40.611 C51.92,38.693 45.772,36.877 40.531,35.011 C40.466,30.882 40.359,25.851 40.233,21.276 C40.226,21.058 40.226,20.844 40.215,20.63 C40.208,20.403 40.202,20.182 40.2,19.964 C40.084,16.026 39.959,12.539 39.839,10.447 C37.074,13.854 34.685,17.506 32.956,20.357 C32.818,20.582 32.684,20.8 32.557,21.017 C32.492,21.122 32.425,21.238 32.361,21.347 C32.357,21.358 32.29,21.467 32.174,21.67 C31.416,22.971 28.421,27.981 24.348,33.057 C24.462,33.246 31.069,44.259 36.281,52.916 C36.404,53.121 36.528,53.33 36.647,53.529 C36.776,53.739 36.901,53.945 37.023,54.149 C39.686,58.567 41.85,62.149 42.369,62.977 L24.451,57.321 L23.508,57.02 L22.603,56.732 L21.826,56.487 C22.579,49.637 23.822,35.293 24.342,33.069 C21.178,37.013 17.367,40.997 13.456,43.328 C11.152,44.694 8.48,45.48 6.13,45.48 C4.68,45.48 3.391,45.19 2.304,44.638 C2.19,44.58 2.074,44.52 1.97,44.457 C5.528,52.243 10.968,61.542 15.872,68.182 C16.34,68.82 16.803,69.43 17.264,70.018 C17.277,70.032 17.284,70.054 17.3,70.063 C19.194,72.368 22.091,73.646 25.44,73.646 C27.561,73.646 29.836,73.139 32.207,72.136 C39.536,68.598 46.158,57.917 48.986,53.356 C49.006,53.325 49.015,53.3 49.035,53.276 C49.193,53.017 49.343,52.777 49.476,52.57 C49.53,52.483 49.576,52.408 49.625,52.331 L49.629,52.335 C49.678,52.224 49.749,52.088 49.849,51.912 C50.09,51.475 50.506,50.791 51.199,49.684 C52.115,48.224 53.594,45.949 55.426,43.449 C56.079,42.549 56.807,41.594 57.589,40.611 z" fill="#0071CE"/>
        <path d="M45.666,19.983 C45.788,20.183 45.904,20.386 46.018,20.583 C50.401,28.121 55.807,37.409 57.619,40.577 C60.659,36.763 64.564,32.583 68.549,30.208 C70.838,28.847 73.502,28.075 75.845,28.075 C76.518,28.075 77.151,28.14 77.754,28.262 C77.758,28.262 77.763,28.262 77.767,28.266 C77.758,28.262 77.758,28.253 77.749,28.246 C72.481,25.022 65.277,20.752 61.453,18.279 C61.584,17.312 61.718,16.33 61.843,15.362 C61.881,15.057 61.919,14.756 61.966,14.453 C62.001,14.134 62.044,13.816 62.086,13.501 C62.525,10.15 62.928,6.941 63.222,4.398 C64.033,5.457 64.847,6.579 65.667,7.736 C65.843,7.988 66.017,8.237 66.195,8.489 C66.356,8.716 66.512,8.953 66.676,9.191 C66.75,9.3 66.823,9.411 66.904,9.528 C70.607,14.974 77.91,28.297 77.91,28.297 L78.715,28.513 C79.072,28.633 79.408,28.776 79.727,28.934 C79.738,28.947 79.756,28.947 79.763,28.958 C78.35,25.889 76.628,22.569 74.729,19.242 C72.34,15.03 69.68,10.803 67.026,7.02 C66.781,6.666 66.534,6.318 66.284,5.973 C65.711,5.178 65.145,4.406 64.577,3.658 C64.243,3.215 63.907,2.784 63.581,2.365 C63.545,2.316 63.503,2.282 63.463,2.242 L63.463,2.228 C61.679,0.802 59.165,-0 56.335,-0 C54.038,-0 51.685,0.537 49.886,1.473 C46.406,3.233 42.992,6.589 40,10.25 C40.631,11.331 42.736,14.952 45.308,19.375 C45.432,19.574 45.55,19.781 45.666,19.983 z" fill="#0071CE"/>
      </g>
      <path d="M287.827,24.988 C286.564,24.988 285.628,24.028 285.628,22.781 C285.628,21.371 286.577,20.502 288.101,20.502 C289.353,20.502 290.238,21.42 290.238,22.662 C290.238,24.083 289.327,24.988 287.827,24.988 z M287.966,21.003 C287.023,21.003 286.248,21.632 286.248,22.7 C286.248,23.798 286.919,24.474 287.975,24.474 C288.871,24.474 289.631,23.808 289.631,22.743 C289.632,21.693 288.935,21.003 287.966,21.003 z M288.347,23.872 L287.765,23.01 L287.765,23.528 C287.765,23.552 287.769,23.614 287.811,23.872 L287.1,23.872 L287.1,21.917 L287.053,21.488 L287.871,21.488 C288.348,21.488 288.807,21.747 288.807,22.266 C288.807,22.516 288.622,22.808 288.343,22.937 L289.149,23.871 L288.347,23.871 z M287.789,22.691 C287.996,22.691 288.215,22.556 288.215,22.267 C288.215,21.979 287.996,21.896 287.789,21.896 L287.765,21.896 L287.765,22.691 L287.789,22.691 z" fill="#E6E7E8"/>
      <path d="M257.768,23.35 C257.561,24.419 257.264,25.514 256.861,26.646 C256.262,26.749 255.638,26.813 254.991,26.846 C254.341,26.881 253.752,26.899 253.219,26.899 C252.715,26.899 252.136,26.881 251.468,26.846 C250.797,26.813 250.198,26.75 249.663,26.646 C249.634,25.483 249.706,24.373 249.89,23.321 C250.073,22.271 250.371,21.162 250.768,19.999 C251.367,19.861 252,19.77 252.667,19.725 C253.331,19.669 253.931,19.651 254.47,19.651 C254.998,19.651 255.593,19.669 256.237,19.725 C256.892,19.77 257.499,19.861 258.065,19.999 C258.066,21.162 257.968,22.281 257.768,23.35 L257.768,23.35 z" fill="#0071CE"/>
    </g>
  </g>
  <defs/>
</svg>
